# xmcd
#
# Track frame offsets: 
#        150
#        10857
#        23087
#        34502
#        46772
#        59157
#        71755
#        81437
#        89800
#        99922
#        110665
#        125232
#        145277
#        153507
#        165120
#        174505
#        185257
#        197060
#        205260
#        216790
#
# Disc length: 3021 seconds
#
# Revision: 6
# Processed by: cddbd v1.5.2PL0 Copyright (c) Steve Scherf et al.
# Submitted via: ExactAudioCopyFreeDBPlugin 1.0
#
DISCID=1b0bcb14
DTITLE=Chuck Berry - The Best Of Chuck Berry Disc 2
DYEAR=1996
DGENRE=Rock and Roll
TTITLE0=Maybelline
TTITLE1=No Particular Place To Go
TTITLE2=Rock and Roll Music
TTITLE3=Run Rudolph Run
TTITLE4=Jo Jo Gunne
TTITLE5=Carol
TTITLE6=Confessin' The Blues
TTITLE7=Jaguar And Thunderbird
TTITLE8=Down The Road Apiece
TTITLE9=Thirty Days
TTITLE10=Merry Christmas Baby
TTITLE11=My Ding-A-Ling [Live]
TTITLE12=I'm Talking About You
TTITLE13=Too Pooped To Pop
TTITLE14=Bye Bye Johnny
TTITLE15=Promised Land
TTITLE16=Tulane
TTITLE17=Come On
TTITLE18=Nadine (Is It You?)
TTITLE19=Memphis, Tennessee
EXTD=YEAR: 1996 ID3G: 78
EXTT0=Maybelline
EXTT1=No Particular Place To Go
EXTT2=Rock and Roll Music
EXTT3=Run Rudolph Run
EXTT4=Jo Jo Gunne
EXTT5=Carol
EXTT6=Confessin' The Blues
EXTT7=Jaguar And Thunderbird
EXTT8=Down The Road Apiece
EXTT9=Thirty Days
EXTT10=Merry Christmas Baby
EXTT11=My Ding-a-ling (live)
EXTT12=I'm Talking About You
EXTT13=Too Pooped To Pop
EXTT14=Bye Bye Johnny
EXTT15=Promised Land
EXTT16=Tulane
EXTT17=Come On
EXTT18=Nadine (Is it you?)
EXTT19=Memphis, Tennessee
PLAYORDER=
